<?xml version="1.0" encoding="UTF-8"?>
<!DOCTYPE svg PUBLIC "-//W3C//DTD SVG 1.1//EN" "http://www.w3.org/Graphics/SVG/1.1/DTD/svg11.dtd">
<!-- Creator: CorelDRAW -->
<svg xmlns="http://www.w3.org/2000/svg" xml:space="preserve" width="90.6722mm" height="37.0608mm" style="shape-rendering:geometricPrecision; text-rendering:geometricPrecision; image-rendering:optimizeQuality; fill-rule:evenodd; clip-rule:evenodd"
viewBox="0 0 90.6722 37.0608"
 xmlns:xlink="http://www.w3.org/1999/xlink">
 <defs>
  <style type="text/css">
   <![CDATA[
    .fil0 {fill:#1F1A17;fill-rule:nonzero}
   ]]>
  </style>
 </defs>
 <g id="Layer_x0020_1">
  <metadata id="CorelCorpID_0Corel-Layer"/>
  <path class="fil0" d="M23.5869 20.9565c-1.2878,0.9171 -2.1043,1.4743 -2.4497,1.6716 -1.8456,1.1003 -3.5317,1.6504 -5.0579,1.6504 -0.8519,0 -1.6861,-0.1953 -2.5024,-0.5856 -0.8164,-0.3904 -1.4287,-0.8963 -1.8368,-1.5175 -0.4082,-0.6211 -0.6123,-1.3221 -0.6123,-2.103 0,-1.1003 0.3726,-2.5023 1.1181,-4.2063 1.0648,-2.4846 1.6327,-3.8156 1.7038,-3.9931 -0.0356,-0.142 -0.0534,-0.3019 -0.0534,-0.4793 -0.4968,0.2131 -0.834,0.3729 -1.0115,0.4793 -0.9939,0.6391 -1.9701,1.3666 -2.9284,2.1829 -0.7455,0.6744 -1.6151,1.5265 -2.6088,2.5557 -0.213,1.2778 -0.3196,2.538 -0.3196,3.7802 0,0.9585 0.0532,1.9168 0.1598,2.8751l-6.4424 1.0116c-0.497,-1.9876 -0.7454,-3.8867 -0.7454,-5.697 0,-1.1002 0.1066,-2.2184 0.3195,-3.3541 0.213,-1.1358 0.6035,-2.4138 1.1713,-3.8337 0.3905,-0.9937 0.9407,-2.236 1.6504,-3.7268l7.401 -1.2246c-0.4616,1.1359 -0.7989,1.9878 -1.0118,2.5557 -0.3904,0.9584 -0.7098,1.8278 -0.9584,2.6088 1.7748,-1.6325 3.5497,-2.8928 5.3243,-3.7801 1.4199,-0.7099 2.6977,-1.065 3.8334,-1.065 0.639,0 1.2957,0.1241 1.9701,0.3728 0.6743,0.2484 1.1624,0.6389 1.4641,1.1714 0.3018,0.5324 0.4525,1.1713 0.4525,1.9166 0,1.0648 -0.3015,2.3782 -0.9052,3.94 -0.7098,1.7747 -1.4019,3.5495 -2.0762,5.3243 0,0.2485 0.0886,0.3992 0.2661,0.4525 0.1776,0.0533 0.3551,0.0798 0.5326,0.0798 0.7121,0 1.7716,-0.372 3.1783,-1.1163 -0.1312,-0.5123 -0.1969,-1.0454 -0.1969,-1.5991 0,-0.8519 0.1243,-1.6681 0.3728,-2.4491 0.2484,-0.7808 0.6212,-1.5972 1.1181,-2.4491 0.8874,-1.4553 2.1296,-2.6976 3.7269,-3.7271 1.5974,-1.0293 3.2833,-1.6858 5.058,-1.9699 0.639,-0.0709 1.1359,-0.1066 1.4909,-0.1066 1.1712,0 2.2184,0.1953 3.1412,0.5857 0.923,0.3906 1.6861,1.0295 2.2894,1.917 0.3551,0.5677 0.5326,1.1356 0.5326,1.7035 0,0.8875 -0.4437,1.757 -1.3311,2.609 -0.6389,0.6034 -1.4997,1.1714 -2.5821,1.7039 -1.0828,0.5324 -2.1566,0.9759 -3.2214,1.3308 -0.781,0.2485 -1.881,0.5502 -3.3011,0.9052 0.4616,0.9584 1.1182,1.7305 1.97,2.3161 0.852,0.5856 1.7571,0.8786 2.7154,0.8786 1.4554,0 2.9106,-0.3728 4.3659,-1.1183 0.068,-0.034 1.1795,-0.7366 3.3346,-2.1074 0.0122,-0.1704 0.0276,-0.3464 0.0464,-0.528 0.0533,-0.5147 0.1596,-1.1446 0.3195,-1.89 0.063,-0.2939 0.1218,-0.5631 0.1765,-0.8075l7.6884 -0.459c-0.1838,0.6424 -0.374,1.304 -0.5709,1.9853 -0.2306,0.7985 -0.346,1.464 -0.346,1.9964 0,0.852 0.1687,1.4464 0.5058,1.7837 0.3372,0.3371 0.8253,0.5059 1.4643,0.5059 0.9228,0 2.1297,-0.3907 3.6203,-1.1714 0.7099,-0.4293 1.2816,-0.7742 1.7152,-1.0344 0.0126,-0.2859 0.0354,-0.5889 0.0684,-0.909 0.0533,-0.5147 0.1598,-1.1446 0.3196,-1.89 0.0627,-0.293 0.1215,-0.5614 0.176,-0.805l7.6884 -0.459c-0.1835,0.6415 -0.3736,1.3024 -0.5702,1.9828 -0.2306,0.7985 -0.346,1.464 -0.346,1.9964 0,0.852 0.1687,1.4464 0.5058,1.7837 0.3372,0.3371 0.8252,0.5059 1.4641,0.5059 0.9228,0 2.1299,-0.3907 3.6205,-1.1714l1.1085 -0.6695c-0.0291,-0.2516 -0.0436,-0.5075 -0.0436,-0.7682 0,-0.8519 0.1242,-1.6681 0.3726,-2.4491 0.2483,-0.7808 0.6212,-1.5972 1.1181,-2.4491 0.8873,-1.4553 2.1298,-2.6976 3.7272,-3.7271 1.5971,-1.0293 3.2832,-1.6858 5.0579,-1.9699 0.6389,-0.0709 1.1358,-0.1066 1.4908,-0.1066 1.1714,0 2.2183,0.1953 3.1413,0.5857 0.9229,0.3906 1.6861,1.0295 2.2893,1.917 0.3549,0.5677 0.5325,1.1356 0.5325,1.7035 0,0.8875 -0.4437,1.757 -1.331,2.609 -0.6389,0.6034 -1.4997,1.1714 -2.5822,1.7039 -1.0828,0.5324 -2.1565,0.9759 -3.2212,1.3308 -0.7809,0.2485 -1.8814,0.5502 -3.3012,0.9052 0.4615,0.9584 1.1181,1.7305 1.9701,2.3161 0.8519,0.5856 1.757,0.8786 2.7153,0.8786 1.4554,0 2.9106,-0.3728 4.366,-1.1183 0.071,-0.0355 1.2777,-0.7986 3.6205,-2.2893l0 2.3959c-0.2129,0.1419 -1.0649,0.7454 -2.5557,1.8103 -1.1002,0.7808 -2.0055,1.3309 -2.7153,1.6504 -1.7749,0.781 -3.7271,1.1714 -5.8569,1.1714 -1.4198,0 -2.6798,-0.1687 -3.7801,-0.5057 -1.1003,-0.3374 -2.112,-0.9319 -3.0349,-1.7838 -0.5703,-0.5103 -1.0203,-1.0841 -1.3494,-1.7215 -1.565,1.1312 -2.7658,1.9358 -3.6021,2.4137 -1.8813,1.0648 -3.585,1.5973 -5.1112,1.5973 -0.8567,0 -1.5482,-0.0552 -2.3428,-0.4259 -1.3487,-0.568 -2.2892,-1.3045 -2.8218,-2.2096 -0.264,-0.4489 -0.4626,-0.9481 -0.5957,-1.4973 -1.6475,1.1955 -2.9042,2.0406 -3.7703,2.5355 -1.8812,1.0648 -3.5849,1.5973 -5.1111,1.5973 -0.8569,0 -1.5481,-0.0552 -2.3428,-0.4259 -1.3488,-0.568 -2.2893,-1.3045 -2.8219,-2.2096 -0.3214,-0.5466 -0.5458,-1.1676 -0.6731,-1.8632 -0.3707,0.2581 -1.1577,0.8169 -2.3616,1.6769 -1.1004,0.7808 -2.0056,1.3309 -2.7155,1.6504 -1.7747,0.781 -3.7268,1.1714 -5.8566,1.1714 -1.4197,0 -2.6799,-0.1687 -3.7801,-0.5057 -1.1005,-0.3374 -2.112,-0.9319 -3.0349,-1.7838 -0.3223,-0.2884 -0.6061,-0.5971 -0.8515,-0.9261zm10.7015 -9.7224c0.0353,-0.1419 0.053,-0.355 0.053,-0.6389 0,-0.9229 -0.3904,-1.3842 -1.1712,-1.3842 -0.1066,0 -0.3017,0.0355 -0.5858,0.1063 -1.0649,0.2486 -1.8989,0.9229 -2.5022,2.0233 -0.6035,1.1003 -0.9052,2.254 -0.9052,3.4608 1.4908,-0.3904 2.5734,-0.7809 3.2478,-1.1714 1.1003,-0.6033 1.7215,-1.402 1.8636,-2.3959zm7.3474 0.1596l1.0647 -4.2061 2.183 -0.1063 2.0766 -5.6971 7.8798 -1.3842 -2.2362 6.7085 3.5673 -0.1596 -0.9584 3.993c-4.5242,0.3056 -9.0501,0.5856 -13.5768,0.8518zm14.6417 0l1.0649 -4.2061 2.1827 -0.1063 2.0767 -5.6971 7.8797 -1.3842 -2.2361 6.7085 3.5674 -0.1596 -0.9584 3.993c-4.5389,0.3067 -9.0974,0.5885 -13.5769,0.8518zm26.3016 -0.1596c0.0356,-0.1419 0.0535,-0.355 0.0535,-0.6389 0,-0.9229 -0.3906,-1.3842 -1.1714,-1.3842 -0.1065,0 -0.3016,0.0355 -0.5856,0.1063 -1.0648,0.2486 -1.8991,0.9229 -2.5026,2.0233 -0.6033,1.1003 -0.9051,2.254 -0.9051,3.4608 1.4907,-0.3904 2.5734,-0.7809 3.2479,-1.1714 1.1003,-0.6033 1.7214,-1.402 1.8633,-2.3959z"/>
  <path class="fil0" d="M4.6004 36.9582l0.8206 0 0 -2.8441 2.3685 0 0 -0.6714 -2.3685 0 0 -2.0888 2.5643 0 0 -0.6807 -3.3849 0 0 6.285zm8.3066 0l0.8113 0 0 -2.7229 0.7646 0c0.244,0.0078 0.4491,0.0529 0.6154,0.1368 0.1648,0.0824 0.3,0.2129 0.4057,0.3885 0.1041,0.1772 0.1865,0.4088 0.2471,0.6963 0.0839,0.3932 0.1616,0.718 0.23,0.9744 0.0684,0.2565 0.129,0.4321 0.1803,0.5269l0.8392 0c-0.0637,-0.1228 -0.1352,-0.331 -0.2144,-0.6248 -0.0778,-0.2937 -0.1679,-0.6605 -0.2705,-1.1003 -0.073,-0.3279 -0.1849,-0.5999 -0.3341,-0.8159 -0.1492,-0.2161 -0.3435,-0.3668 -0.5797,-0.4523l0 -0.028c0.2207,-0.0746 0.4181,-0.1849 0.5952,-0.331 0.1756,-0.1445 0.3171,-0.3233 0.4196,-0.5346 0.1042,-0.2129 0.157,-0.4554 0.1601,-0.7289 -0.0015,-0.2487 -0.045,-0.4756 -0.1321,-0.6823 -0.0855,-0.2051 -0.2067,-0.3792 -0.3621,-0.5206 -0.188,-0.1725 -0.4305,-0.3015 -0.7273,-0.3855 -0.2953,-0.0854 -0.659,-0.1274 -1.091,-0.1274 -0.185,0 -0.3699,0.0062 -0.5564,0.0171 -0.1865,0.0109 -0.3668,0.0264 -0.5378,0.0466 -0.1709,0.0187 -0.3248,0.042 -0.4631,0.0668l0 6.2011zm0.8113 -5.6322c0.0699,-0.0187 0.1725,-0.0342 0.3061,-0.0467 0.1352,-0.0124 0.3,-0.0186 0.4958,-0.0186 0.2875,-0.0016 0.5393,0.0404 0.7569,0.1212 0.216,0.0824 0.3838,0.2098 0.5051,0.3808 0.1196,0.1725 0.1818,0.3932 0.1834,0.6636 -0.0016,0.2409 -0.0591,0.4507 -0.1741,0.6279 -0.115,0.1787 -0.2782,0.317 -0.4896,0.4165 -0.2129,0.0979 -0.4631,0.1476 -0.7537,0.1492l-0.8299 0 0 -2.2939zm11.2533 3.6553l0.6714 1.9769 0.8672 0 -2.1448 -6.285 -0.9698 0 -2.1447 6.285 0.8393 0 0.6527 -1.9769 2.2287 0zm-2.0608 -0.6341l0.6154 -1.8183c0.0653,-0.1927 0.1228,-0.3839 0.1725,-0.5766 0.0513,-0.1912 0.0995,-0.3792 0.1445,-0.5611l0.0187 0c0.0451,0.1803 0.0948,0.3668 0.1461,0.5564 0.0513,0.1896 0.1119,0.3854 0.1803,0.5906l0.6247 1.809 -1.9022 0zm13.687 2.611l0.802 0 -0.3917 -6.285 -1.035 0 -1.119 3.0399c-0.1399,0.3948 -0.2658,0.7678 -0.3777,1.1175 -0.1119,0.3497 -0.2098,0.6838 -0.2937,0.9993l-0.0187 0c-0.0839,-0.3248 -0.1771,-0.6636 -0.2813,-1.0133 -0.1056,-0.3497 -0.2222,-0.718 -0.3528,-1.1035l-1.0723 -3.0399 -1.0351 0 -0.4383 6.285 0.774 0 0.1679 -2.6949c0.0186,-0.3202 0.0357,-0.6419 0.0528,-0.9698 0.0155,-0.3264 0.0295,-0.6434 0.042,-0.9527 0.0108,-0.3077 0.0202,-0.5937 0.0264,-0.8563l0.0186 0c0.0886,0.3714 0.1927,0.76 0.314,1.1656 0.1196,0.4041 0.2549,0.8299 0.404,1.2775l1.0258 2.9933 0.6154 0 1.1097 -3.0492c0.1585,-0.4336 0.3015,-0.8486 0.432,-1.2465 0.129,-0.3978 0.2503,-0.777 0.3606,-1.1407l0.0187 0c0,0.1943 0.0031,0.4041 0.0093,0.6263 0.0062,0.2238 0.014,0.4538 0.0249,0.6916 0.0093,0.2378 0.0202,0.474 0.0326,0.7102 0.0124,0.2363 0.0233,0.4647 0.0357,0.6854l0.1492 2.7602zm9.0527 -3.6181l-2.4338 0 0 -1.9862 2.583 0 0 -0.6807 -3.4036 0 0 6.285 3.5434 0 0 -0.6807 -2.7228 0 0 -2.266 2.4338 0 0 -0.6714zm7.0571 3.6181l0.8952 -3.273c0.0777,-0.2689 0.1461,-0.5207 0.2067,-0.7538 0.0606,-0.2331 0.1134,-0.4569 0.1585,-0.6683 0.0466,-0.2129 0.0855,-0.4227 0.1197,-0.6294l0.0186 0c0.028,0.2098 0.0606,0.4212 0.1011,0.6356 0.0388,0.2129 0.0839,0.4367 0.1352,0.6683 0.0512,0.2316 0.1088,0.4818 0.174,0.7476l0.7926 3.273 0.8486 0 1.7811 -6.285 -0.83 0 -0.8299 3.1705c-0.0979,0.3901 -0.1911,0.7631 -0.2766,1.1221 -0.0855,0.3574 -0.1616,0.7071 -0.2269,1.0506l-0.0187 0c-0.0481,-0.3326 -0.1103,-0.6807 -0.188,-1.046 -0.0762,-0.3636 -0.1601,-0.7335 -0.2502,-1.1081l-0.7647 -3.1891 -0.8485 0 -0.8393 3.1705c-0.1088,0.4072 -0.2082,0.7942 -0.2984,1.1609 -0.0901,0.3668 -0.1616,0.7072 -0.2144,1.0211l-0.0187 0c-0.0373,-0.2036 -0.0808,-0.4227 -0.129,-0.6589 -0.0482,-0.2363 -0.101,-0.4818 -0.1585,-0.7367 -0.056,-0.2565 -0.1166,-0.5144 -0.1787,-0.7771l-0.746 -3.1798 -0.8579 0 1.5945 6.285 0.8486 0zm12.3071 -6.3969c-0.4212,0.0016 -0.8097,0.0793 -1.1625,0.2347 -0.3544,0.1554 -0.6606,0.3777 -0.9216,0.6667 -0.2611,0.2907 -0.4632,0.6372 -0.6062,1.0413 -0.1445,0.4056 -0.2175,0.8579 -0.2191,1.3583 0.0016,0.4772 0.0699,0.9108 0.2067,1.3024 0.1368,0.3901 0.3295,0.7274 0.5797,1.0102 0.2502,0.2829 0.5486,0.5004 0.8936,0.6543 0.3451,0.1523 0.7258,0.23 1.1454,0.2316 0.3218,0 0.6295,-0.0467 0.9201,-0.1383 0.2906,-0.0902 0.5579,-0.227 0.8004,-0.4072 0.2424,-0.1803 0.4538,-0.4026 0.6325,-0.6699 0.1788,-0.2657 0.3186,-0.5735 0.4165,-0.9231 0.0979,-0.3497 0.1477,-0.7414 0.1492,-1.1719 -0.0015,-0.4709 -0.0683,-0.8998 -0.2005,-1.2884 -0.1321,-0.39 -0.3217,-0.7257 -0.5703,-1.0086 -0.2471,-0.2844 -0.5455,-0.5035 -0.8937,-0.6574 -0.3465,-0.1539 -0.7382,-0.2331 -1.1702,-0.2347zm-0.028 0.6621c0.2704,0.0015 0.5129,0.0497 0.7273,0.1461 0.2161,0.0948 0.4026,0.2269 0.5626,0.3932 0.1601,0.1678 0.2938,0.3605 0.3995,0.5781 0.1056,0.2176 0.1849,0.4507 0.2377,0.6963 0.0513,0.2471 0.0777,0.4973 0.0777,0.7506 0,0.359 -0.045,0.6963 -0.1336,1.0102 -0.0886,0.314 -0.2191,0.5906 -0.3901,0.8299 -0.1725,0.2394 -0.3823,0.4274 -0.6325,0.5642 -0.2503,0.1352 -0.5362,0.2036 -0.8579,0.2067 -0.258,-0.0015 -0.4927,-0.0466 -0.7041,-0.1352 -0.2113,-0.0901 -0.3978,-0.2145 -0.561,-0.3746 -0.1632,-0.16 -0.3,-0.3481 -0.4103,-0.561 -0.1119,-0.2145 -0.1958,-0.4476 -0.2533,-0.6994 -0.056,-0.2517 -0.0855,-0.5128 -0.0855,-0.7848 0,-0.2751 0.0264,-0.5424 0.0808,-0.7988 0.0528,-0.2565 0.1337,-0.4958 0.2425,-0.7165 0.1072,-0.2191 0.2424,-0.4119 0.404,-0.5782 0.1617,-0.1647 0.3513,-0.2937 0.5673,-0.3854 0.216,-0.0932 0.4585,-0.1399 0.7289,-0.1414zm7.6726 5.7348l0.8113 0 0 -2.7229 0.7646 0c0.244,0.0078 0.4491,0.0529 0.6154,0.1368 0.1648,0.0824 0.3,0.2129 0.4057,0.3885 0.1041,0.1772 0.1865,0.4088 0.2471,0.6963 0.0839,0.3932 0.1616,0.718 0.23,0.9744 0.0684,0.2565 0.129,0.4321 0.1803,0.5269l0.8392 0c-0.0637,-0.1228 -0.1352,-0.331 -0.2144,-0.6248 -0.0778,-0.2937 -0.1679,-0.6605 -0.2705,-1.1003 -0.073,-0.3279 -0.1849,-0.5999 -0.3341,-0.8159 -0.1492,-0.2161 -0.3435,-0.3668 -0.5797,-0.4523l0 -0.028c0.2207,-0.0746 0.4181,-0.1849 0.5952,-0.331 0.1756,-0.1445 0.3171,-0.3233 0.4196,-0.5346 0.1042,-0.2129 0.157,-0.4554 0.1601,-0.7289 -0.0015,-0.2487 -0.045,-0.4756 -0.1321,-0.6823 -0.0855,-0.2051 -0.2067,-0.3792 -0.3621,-0.5206 -0.188,-0.1725 -0.4305,-0.3015 -0.7273,-0.3855 -0.2953,-0.0854 -0.659,-0.1274 -1.091,-0.1274 -0.185,0 -0.3699,0.0062 -0.5564,0.0171 -0.1865,0.0109 -0.3668,0.0264 -0.5378,0.0466 -0.1709,0.0187 -0.3248,0.042 -0.4631,0.0668l0 6.2011zm0.8113 -5.6322c0.0699,-0.0187 0.1725,-0.0342 0.3061,-0.0467 0.1352,-0.0124 0.3,-0.0186 0.4958,-0.0186 0.2875,-0.0016 0.5393,0.0404 0.7569,0.1212 0.216,0.0824 0.3838,0.2098 0.5051,0.3808 0.1196,0.1725 0.1818,0.3932 0.1834,0.6636 -0.0016,0.2409 -0.0591,0.4507 -0.1741,0.6279 -0.115,0.1787 -0.2782,0.317 -0.4896,0.4165 -0.2129,0.0979 -0.4631,0.1476 -0.7537,0.1492l-0.8299 0 0 -2.2939zm7.9616 5.6322l0.8113 0 0 -2.3965 0.6061 -0.69 2.0608 3.0865 0.9604 0 -2.4524 -3.6181 2.2753 -2.6669 -1.0071 0 -1.9209 2.3592c-0.0793,0.1026 -0.1601,0.2098 -0.244,0.3217 -0.0824,0.1119 -0.1663,0.2285 -0.2503,0.3497l-0.0279 0 0 -3.0306 -0.8113 0 0 6.285z"/>
 </g>
</svg>
